<svg width="34" height="34" viewBox="0 0 34 34" fill="none" xmlns="http://www.w3.org/2000/svg">
<path d="M30.6708 3.17334C30.5163 3.04082 30.3352 2.94312 30.1396 2.88689C29.944 2.83067 29.7386 2.81723 29.5374 2.8475L11.1208 5.68084C10.7854 5.73172 10.4794 5.90126 10.2584 6.15863C10.0374 6.416 9.91614 6.74412 9.91659 7.08334V21.7458C9.25467 21.4225 8.52824 21.253 7.79159 21.25C6.81092 21.25 5.85228 21.5408 5.03689 22.0856C4.22149 22.6305 3.58597 23.4049 3.21068 24.3109C2.8354 25.2169 2.73721 26.2138 2.92853 27.1757C3.11985 28.1375 3.59208 29.021 4.28552 29.7144C4.97895 30.4078 5.86244 30.8801 6.82427 31.0714C7.78609 31.2627 8.78304 31.1645 9.68906 30.7892C10.5951 30.414 11.3695 29.7784 11.9143 28.963C12.4591 28.1476 12.7499 27.189 12.7499 26.2083V15.385L28.3333 12.9908V18.9125C27.6713 18.5892 26.9449 18.4197 26.2083 18.4167C25.2276 18.4167 24.2689 18.7075 23.4536 19.2523C22.6382 19.7971 22.0026 20.5715 21.6274 21.4775C21.2521 22.3836 21.1539 23.3805 21.3452 24.3423C21.5365 25.3041 22.0087 26.1876 22.7022 26.8811C23.3956 27.5745 24.2791 28.0467 25.2409 28.2381C26.2028 28.4294 27.1997 28.3312 28.1057 27.9559C29.0117 27.5806 29.7861 26.9451 30.331 26.1297C30.8758 25.3143 31.1666 24.3557 31.1666 23.375V4.25C31.1666 4.04538 31.1223 3.84318 31.0367 3.65732C30.9511 3.47146 30.8263 3.30634 30.6708 3.17334ZM7.79159 28.3333C7.3713 28.3333 6.96046 28.2087 6.611 27.9752C6.26155 27.7417 5.98918 27.4098 5.82834 27.0215C5.66751 26.6332 5.62543 26.206 5.70742 25.7938C5.78941 25.3816 5.9918 25.0029 6.28899 24.7057C6.58617 24.4086 6.96481 24.2062 7.37702 24.1242C7.78923 24.0422 8.2165 24.0843 8.60479 24.2451C8.99308 24.4059 9.32496 24.6783 9.55846 25.0278C9.79196 25.3772 9.91659 25.7881 9.91659 26.2083C9.91659 26.7719 9.6927 27.3124 9.29419 27.7109C8.89568 28.1095 8.35517 28.3333 7.79159 28.3333ZM26.2083 25.5C25.788 25.5 25.3771 25.3754 25.0277 25.1419C24.6782 24.9084 24.4058 24.5765 24.245 24.1882C24.0842 23.7999 24.0421 23.3726 24.1241 22.9604C24.2061 22.5482 24.4085 22.1696 24.7057 21.8724C25.0028 21.5752 25.3815 21.3728 25.7937 21.2908C26.2059 21.2088 26.6332 21.2509 27.0215 21.4118C27.4097 21.5726 27.7416 21.845 27.9751 22.1944C28.2086 22.5439 28.3333 22.9547 28.3333 23.375C28.3333 23.9386 28.1094 24.4791 27.7109 24.8776C27.3123 25.2761 26.7718 25.5 26.2083 25.5ZM28.3333 10.115L12.7499 12.5092V8.25917L28.3333 5.9075V10.115Z" fill="#B8A793"/>
</svg>
